<svg width="100" height="100" viewBox="0 0 100 100" fill="none" xmlns="http://www.w3.org/2000/svg">
<path d="M25.6375 50V19.056C25.6368 16.7212 26.0961 14.4092 26.9891 12.252C27.8821 10.0947 29.1914 8.13453 30.8421 6.48335C32.4928 4.83218 34.4526 3.52237 36.6096 2.62873C38.7665 1.7351 41.0785 1.27515 43.4132 1.27515H74.3572" stroke="white" stroke-miterlimit="10"/>
<path d="M74.3624 50V80.944C74.3635 83.2787 73.9046 85.5908 73.0118 87.7482C72.1191 89.9055 70.81 91.8658 69.1594 93.517C67.5088 95.1683 65.549 96.4781 63.392 97.3717C61.235 98.2653 58.9231 98.7251 56.5883 98.7248H26.4111" stroke="white" stroke-miterlimit="10"/>
<path d="M50 76.622V72.1028C50 59.8958 40.1042 50 27.8972 50H23.378C11.1709 50 1.27517 59.8958 1.27517 72.1028V76.622C1.27517 88.8291 11.1709 98.7248 23.378 98.7248H27.8972C40.1042 98.7248 50 88.8291 50 76.622Z" stroke="white" stroke-miterlimit="10"/>
<path d="M98.7249 27.8972V23.378C98.7249 11.1709 88.8291 1.27515 76.622 1.27515L72.1028 1.27515C59.8958 1.27515 50 11.1709 50 23.378V27.8972C50 40.1042 59.8958 50 72.1028 50H76.622C88.8291 50 98.7249 40.1042 98.7249 27.8972Z" stroke="white" stroke-miterlimit="10"/>
</svg>
